<svg xmlns="http://www.w3.org/2000/svg"
	xmlns:xlink="http://www.w3.org/1999/xlink" xml:space="preserve" viewBox="2676.4 -0.9 201.5 299.9">
	<path fill="#F0F0EF" d="M2836.2 528.8c-3.5-30-23.4-54.8-50.5-65.3-1 .7-2 1.6-3 2.3-13.9 10.5-31.1 23.6-34.3 28l-.4.5-.4.4c-.4.4-.7.7-1 1.1 3.1-.9 6.4-1.4 9.8-1.4 18.9 0 34.4 15.3 34.4 34.3v.1h45.4zm-45.5 9.1c0 18.9-15.5 34.3-34.4 34.3s-34.3-15.3-34.3-34.3v-.1h-44.3c4.6 40 37.9 70.2 78.5 70.6 3-.1 5.9-.2 8.8-.4 37.2-3.7 67-32.9 71.3-70.2H2791c-.3-.1-.3.1-.3.1zm-113.2-9.1h44.6c.6-8.5 3.3-15.9 6.6-22.9 3-6.5 7.9-12.5 12.5-17.4 7.7-10.4 58.4-44.7 74.5-60.8 7.4-7.4 12.9-15.6 16-23.8 3-8 4.4-12.3 4.3-27.3-.1-10.5-2-20.1-6-28.6s-9.5-15.6-16.3-21.5c-6.8-5.8-14.7-10.2-23.8-13.3-9-3.1-18.5-4.7-28.4-4.7-13.1 0-24.6 2.3-34.7 6.7-10.1 4.5-18.4 10.7-25 18.6-6.7 7.9-11.6 17.3-15 28-3 9.9-4.6 20.4-4.4 115 2.4-3.8 4.9-7.3 7.8-10.7 6.7-7.9 13.6-14.3 22.6-20.9 3.6-2.6 8.3-6.4 12-9 .2-48.5.7-52.9 1.6-57.3 1.1-5.9 3-11.3 5.8-16.2 2.7-4.8 6.2-8.8 10.7-11.9 4.5-3 9.9-4.5 16.3-4.5 9.6 0 17.3 2.9 23.5 8.9 6.1 5.9 9.2 14.1 9.2 24.7 0 6.7-1.5 12.5-4.5 17.7-3 5.1-7.8 9.8-12.2 13.9-4.5 4.1-53.6 39.2-55.3 40.4-8.4 6.2-15.9 13-22.1 20.4-2.4 2.7-4.6 5.7-6.5 8.7-.6 1-1.4 2-1.9 3-2.5 4.2-4.7 8.6-6.5 13.2-.2.4-.3.8-.5 1.3v-.3c-3.2 9.3-4.9 18.9-4.9 30.6zm201.4-78.7c-.3 28.1-14.9 52.9-37.2 66.8-3-13.1-8.9-25.3-17.2-36-.2-.2-.3-.4-.5-.5 11-5.8 18.6-17.3 18.6-30.5 0-10.7-4.8-20.2-12.5-26.6 3.4-4.9 6-10 8-15.2 3.1-8.2 4.7-13.8 5-25.4 19.4 12.9 32.9 34.1 35.3 58.5.3 3.1.4 6.1.5 8.9z"/>
	<defs>
		<path id="a" d="M2923.6 307.5h244.1v301.8h-244.1z"/>
	</defs>
	<clipPath id="b">
		<use xlink:href="#a" overflow="visible"/>
	</clipPath>
	<path fill="#D8D8D8" d="M3050 308.4c10 0 19.5 1.6 28.4 4.7 9 3.1 17 7.6 23.8 13.3 6.8 5.8 12.3 13 16.3 21.5 4.1 8.5 6 18.1 6 28.6.1 15-1.3 19.3-4.3 27.3-3.1 8.1-8.6 16.4-16 23.8-16.2 16.2-66.8 50.4-74.5 60.9-4.7 4.8-9.5 11-12.5 17.4-2.4 5.1-4.5 10.3-5.7 16.1-1 3.7-1.6 7.7-1.6 11.8 0 2.9.3 5.8.8 8.6 2.2 16.8 16.7 29.8 34.1 29.8h.2c1.6 0 3.3-.2 4.9-.4h.1c.4-.1.7-.2 1-.2.4-.1.6-.2 1-.2 0-.1.1-.1.1-.1 12.6-2.8 22.8-12.5 26-25 1.3-4.1 2-8.4 2-13.1 0-4.1-.5-8.1-1.6-11.9-3-14.1-15-25-29.5-26.8-.2 0-.4-.1-.5-.1-.2 0-.4-.1-.7-.1-.4-.1-.7-.1-1.2-.1h-.4c-.5-.1-.8-.1-1.3-.1h-.2c-3.4 0-6.7.5-9.8 1.4.4-.4.7-.7 1-1.1l.4-.4.4-.5c3.3-4.4 20.5-17.5 34.3-28 1-.7 2-1.6 3-2.3 26.3 10.1 46 33.8 50.2 62.7.4 2.1.6 4.5.6 7.1 0 2.8-.2 5.5-.7 7.7-5.5 35.5-34.6 63.5-70.8 67.1-2.9.2-5.8.3-8.8.4-40.6-.4-73.9-30.6-78.5-70.6-.3-1.7-.3-4.6-.4-9 0-12 1.5-21.4 5-30.4v.3c0-.4.3-.8.5-1.3 1.8-4.6 4-9 6.5-13.2.6-1 1.3-2 1.9-3 1.9-3 4.1-6 6.5-8.7 6.2-7.4 13.7-14.2 22.1-20.4 1.7-1.3 50.8-36.3 55.3-40.4 4.4-4.1 9.1-8.8 12.2-13.9 3-5.2 4.5-11.1 4.5-17.7 0-10.6-3-18.8-9.2-24.7-6.2-5.9-14-8.9-23.5-8.9-6.4 0-11.9 1.5-16.3 4.5-4.5 3-8 7-10.7 11.9-2.7 4.9-4.7 10.3-5.8 16.2-.8 4.5-1.4 12.1-1.6 60.6-3.7 2.7-8.4 6.4-12 9-8.9 6.6-15.9 13-22.6 20.9-2.9 3.4-5.4 6.9-7.8 10.7-.2-94.6 1.4-108.5 4.4-118.4 3.4-10.7 8.3-20 15-28 6.6-8 14.9-14.2 25-18.6 10.5-4.4 22-6.7 35-6.7m81.8 74.5c19.4 12.9 32.9 34.1 35.3 58.5.3 2.9.4 5.9.5 8.9-.3 28.1-14.9 52.9-37.2 66.8-3-13.1-8.9-25.3-17.2-36-.2-.2-.3-.4-.5-.5 11-5.8 18.6-17.3 18.6-30.5 0-10.7-4.8-20.2-12.5-26.6 3.4-4.9 6-10 8-15.2 3.1-8.2 4.7-13.7 5-25.4" clip-path="url(#b)"/>
	<path fill="#B7B7B7" d="M2760.4-.9c10 0 19.5 1.6 28.4 4.7 9 3.1 17 7.6 23.8 13.3 6.8 5.8 12.3 13 16.3 21.5s6 18.1 6 28.6c.1 15-1.3 19.3-4.3 27.3-3.1 8.1-8.6 16.4-16 23.8-16.2 16.2-66.8 50.4-74.5 60.9-4.7 4.8-9.5 11-12.5 17.4-2.4 5.1-4.5 10.3-5.7 16.1-1 3.7-1.6 7.7-1.6 11.8 0 2.9.3 5.8.8 8.6 2.2 16.8 16.7 29.8 34.1 29.8h.2c1.6 0 3.3-.2 4.9-.4h.1c.4-.1.7-.2 1-.2s.6-.2 1-.2c0-.1.1-.1.1-.1 12.6-2.8 22.8-12.5 26-25 1.3-4.1 2-8.4 2-13.1 0-4.1-.5-8.1-1.6-11.9-3-14.1-15-25-29.5-26.8-.2 0-.4-.1-.5-.1-.2 0-.4-.1-.7-.1-.4-.1-.7-.1-1.2-.1h-.4c-.5-.1-.8-.1-1.3-.1h-.2c-3.4 0-6.7.5-9.8 1.4.4-.4.7-.7 1-1.1l.4-.4.4-.5c3.3-4.4 20.5-17.5 34.3-28 1-.7 2-1.6 3-2.3 26.3 10.1 46 33.8 50.2 62.7.4 2.1.6 4.5.6 7.1 0 2.8-.2 5.5-.7 7.7-5.5 35.5-34.6 63.5-70.8 67.1-2.9.2-5.8.3-8.8.4-40.6-.4-73.9-30.6-78.5-70.6-.3-1.7-.3-4.6-.4-9 0-12 1.5-21.4 5-30.4v.3c0-.4.3-.8.5-1.3 1.8-4.6 4-9 6.5-13.2.6-1 1.3-2 1.9-3 1.9-3 4.1-6 6.5-8.7 6.2-7.4 13.7-14.2 22.1-20.4 1.7-1.3 50.8-36.3 55.3-40.4 4.4-4.1 9.1-8.8 12.2-13.9 3-5.2 4.5-11.1 4.5-17.7 0-10.6-3-18.8-9.2-24.7-6.2-5.9-14-8.9-23.5-8.9-6.4 0-11.9 1.5-16.3 4.5-4.5 3-8 7-10.7 11.9-2.7 4.9-4.7 10.3-5.8 16.2-.8 4.5-1.4 12.1-1.6 60.6-3.7 2.7-8.4 6.4-12 9-8.9 6.6-15.9 13-22.6 20.9-2.9 3.4-5.4 6.9-7.8 10.7-.2-94.6 1.4-108.5 4.4-118.4 3.4-10.7 8.3-20 15-28 6.6-8 14.9-14.2 25-18.6 10.5-4.4 21.9-6.7 35-6.7m81.8 74.4c19.4 12.9 32.9 34.1 35.3 58.5.3 2.9.4 5.9.5 8.9-.3 28.1-14.9 52.9-37.2 66.8-3-13.1-8.9-25.3-17.2-36-.2-.2-.3-.4-.5-.5 11-5.8 18.6-17.3 18.6-30.5 0-10.7-4.8-20.2-12.5-26.6 3.4-4.9 6-10 8-15.2 3-8.2 4.7-13.7 5-25.4"/>
</svg>